<svg xmlns="http://www.w3.org/2000/svg" xmlns:xlink="http://www.w3.org/1999/xlink" version="1.1" x="0px" y="0px" viewBox="0 0 32 40" style="enable-background:new 0 0 32 32;" xml:space="preserve"><style type="text/css">
	.st0{display:none;}
	.st1{display:inline;}
	.st2{fill:none;}
</style><g><path d="M24.507,17.564c-3.034,0-5.493,2.459-5.493,5.493c0,3.034,2.459,5.493,5.493,5.493c3.034,0,5.493-2.459,5.493-5.493   C30,20.023,27.541,17.564,24.507,17.564z M26.939,22.823l-2.682,2.16c-0.16,0.129-0.36,0.199-0.564,0.199   c-0.034,0-0.068-0.002-0.103-0.006c-0.239-0.027-0.457-0.149-0.605-0.339l-1.054-1.344c-0.307-0.392-0.238-0.957,0.152-1.264   c0.393-0.307,0.956-0.238,1.264,0.152l0.491,0.627l1.972-1.589c0.388-0.313,0.954-0.249,1.266,0.137   C27.388,21.944,27.327,22.511,26.939,22.823z"/><path d="M17.514,23.058c0-3.856,3.137-6.993,6.993-6.993c1.281,0,2.479,0.352,3.513,0.956V8.02c0-2.27-1.84-4.11-4.11-4.11h-2.16   V3.45c0-0.5-0.41-0.9-0.9-0.9c-0.5,0-0.9,0.4-0.9,0.9v0.46H9.18V3.45c0-0.5-0.4-0.9-0.9-0.9s-0.9,0.4-0.9,0.9v0.46H5.21   c-2.27,0-4.11,1.84-4.11,4.11v14.74c0,2.27,1.84,4.11,4.11,4.11h13.442C17.935,25.772,17.514,24.464,17.514,23.058z M21.031,12.244   c0.574,0,1.039,0.465,1.039,1.039c0,0.574-0.465,1.039-1.039,1.039c-0.574,0-1.039-0.465-1.039-1.039   C19.992,12.709,20.457,12.244,21.031,12.244z M8.094,19.983c-0.574,0-1.039-0.465-1.039-1.039c0-0.574,0.465-1.039,1.039-1.039   c0.574,0,1.039,0.465,1.039,1.039C9.133,19.518,8.668,19.983,8.094,19.983z M8.094,14.322c-0.574,0-1.039-0.465-1.039-1.039   c0-0.574,0.465-1.039,1.039-1.039c0.574,0,1.039,0.465,1.039,1.039C9.133,13.857,8.668,14.322,8.094,14.322z M14.563,19.983   c-0.574,0-1.039-0.465-1.039-1.039c0-0.574,0.465-1.039,1.039-1.039s1.039,0.465,1.039,1.039   C15.602,19.518,15.136,19.983,14.563,19.983z M14.563,14.322c-0.574,0-1.039-0.465-1.039-1.039c0-0.574,0.465-1.039,1.039-1.039   s1.039,0.465,1.039,1.039C15.602,13.857,15.136,14.322,14.563,14.322z"/></g><text x="0" y="47" fill="#000000" font-size="5px" font-weight="bold" font-family="'Helvetica Neue', Helvetica, Arial-Unicode, Arial, Sans-serif">Created by Rikas Dzihab</text><text x="0" y="52" fill="#000000" font-size="5px" font-weight="bold" font-family="'Helvetica Neue', Helvetica, Arial-Unicode, Arial, Sans-serif">from the Noun Project</text></svg>