<?xml version="1.0" encoding="UTF-8"?>
<svg width="65px" height="86px" viewBox="0 0 65 86" version="1.1" xmlns="http://www.w3.org/2000/svg" xmlns:xlink="http://www.w3.org/1999/xlink">
    <!-- Generator: Sketch 63.1 (92452) - https://sketch.com -->
    <title>reviews-and-ratings</title>
    <desc>Created with Sketch.</desc>
    <g id="Trust-banner" stroke="none" stroke-width="1" fill="none" fill-rule="evenodd" stroke-linecap="round" stroke-linejoin="round">
        <g id="SEO-homepage_with-trust-banner" transform="translate(-534.000000, -1223.000000)" stroke="#FFFFFF" stroke-width="3.2">
            <g id="reviews-and-ratings" transform="translate(536.000000, 1225.000000)">
                <path d="M20.8686469,57.467128 L20.8017602,57.467128 L16.7216722,49.7605536 C16.1865787,48.8304498 15.250165,48.099654 14.1130913,48.033218 L5.55159516,46.4387543 L6.75555556,37.9349481 C6.95621562,36.8055363 6.55489549,35.6096886 5.81914191,34.8788927 L0,28.567474 L5.8860286,22.4553633 C6.75555556,21.5916955 7.089989,20.5287197 6.88932893,19.399308 L5.8860286,10.9619377 C5.8860286,10.9619377 5.8860286,10.8955017 5.95291529,10.7626298 L14.4475248,9.30103806 C15.4508251,9.1017301 16.5210121,8.43737024 17.0561056,7.44083045 L21.269967,0 L28.8950495,3.72041522 C29.8983498,4.25190311 31.2360836,4.25190311 32.2393839,3.72041522 L39.9982398,0.199307958 L40.0651265,0.199307958 L44.1452145,7.90588235 C44.680308,8.83598616 45.6167217,9.56678201 46.6869087,9.63321799 L55.1815182,11.2941176 L53.9775578,19.7979239 C53.7768977,20.9273356 54.1782178,22.1231834 54.9139714,22.8539792 L60.8,29.1653979 L54.8470847,35.2775087 C53.9775578,36.1411765 53.6431243,37.2041522 53.8437844,38.333564 L54.8470847,46.8373702 L46.4862486,48.232526 C45.4829483,48.4318339 44.4127613,49.0961938 43.8776678,50.0927336 L39.6638064,57.6 L31.9718372,53.8131488 C30.9685369,53.2816609 29.6308031,53.2816609 28.6275028,53.8131488 L20.8686469,57.467128 L20.8686469,57.467128 Z" id="Path"></path>
                <path d="M49.6,28.8 C49.6,18.7096774 41.161939,10.4 30.8337522,10.4 C20.5055655,10.4 12,18.6437276 12,28.8 C12,38.8903226 20.438061,47.2 30.8337522,47.2 C41.161939,47.2 49.6,38.8903226 49.6,28.8 Z" id="Path"></path>
                <path d="M45.9709554,55.86 L56.8,73.35 L47.1143949,73.35 C46.6435669,73.35 46.1054777,73.614 45.9036943,74.01 L41.5317197,81.6 L29.8955414,61.668 L19.2010191,81.402 L14.8290446,74.01 C14.56,73.614 14.1564331,73.35 13.6183439,73.35 L4,73.35 L14.3582166,55.2" id="Path"></path>
                <path d="M18.5193087,26.5045109 L19.1214242,27.8283163 C19.1214242,27.8979902 19.188326,27.8979902 19.2552277,27.8979902 L20.660164,28.1070121 C20.7939675,28.1070121 20.8608692,28.316034 20.7270657,28.385708 L19.7235398,29.4308175 C19.6566381,29.5004914 19.6566381,29.5004914 19.6566381,29.5701654 L19.924245,31.0333186 C19.924245,31.1726666 19.7904415,31.2423405 19.7235398,31.1726666 L18.4524069,30.4759269 L18.3186035,30.4759269 L17.0474706,31.1726666 C16.9136672,31.2423405 16.7798637,31.1029926 16.8467654,31.0333186 L17.1143724,29.5701654 C17.1143724,29.5004914 17.1143724,29.5004914 17.0474706,29.4308175 L16.0439447,28.385708 C15.977043,28.316034 15.977043,28.1070121 16.1108464,28.1070121 L17.5157827,27.8979902 C17.5826845,27.8979902 17.5826845,27.8283163 17.6495862,27.8283163 L18.2517018,26.5045109 C18.3186035,26.365163 18.4524069,26.365163 18.5193087,26.5045109 L18.5193087,26.5045109 Z" id="Path"></path>
                <path d="M26.5193087,26.5045109 L27.1214242,27.8283163 C27.1214242,27.8979902 27.188326,27.8979902 27.2552277,27.8979902 L28.660164,28.1070121 C28.7939675,28.1070121 28.8608692,28.316034 28.7270657,28.385708 L27.7235398,29.4308175 C27.6566381,29.5004914 27.6566381,29.5004914 27.6566381,29.5701654 L27.924245,31.0333186 C27.924245,31.1726666 27.7904415,31.2423405 27.7235398,31.1726666 L26.4524069,30.4759269 L26.3186035,30.4759269 L25.0474706,31.1726666 C24.9136672,31.2423405 24.7798637,31.1029926 24.8467654,31.0333186 L25.1143724,29.5701654 C25.1143724,29.5004914 25.1143724,29.5004914 25.0474706,29.4308175 L24.0439447,28.385708 C23.977043,28.316034 23.977043,28.1070121 24.1108464,28.1070121 L25.5157827,27.8979902 C25.5826845,27.8979902 25.5826845,27.8283163 25.6495862,27.8283163 L26.2517018,26.5045109 C26.3186035,26.365163 26.4524069,26.365163 26.5193087,26.5045109 L26.5193087,26.5045109 Z" id="Path"></path>
                <path d="M34.5193087,26.5045109 L35.1214242,27.8283163 C35.1214242,27.8979902 35.188326,27.8979902 35.2552277,27.8979902 L36.660164,28.1070121 C36.7939675,28.1070121 36.8608692,28.316034 36.7270657,28.385708 L35.7235398,29.4308175 C35.6566381,29.5004914 35.6566381,29.5004914 35.6566381,29.5701654 L35.924245,31.0333186 C35.924245,31.1726666 35.7904415,31.2423405 35.7235398,31.1726666 L34.4524069,30.4759269 L34.3186035,30.4759269 L33.0474706,31.1726666 C32.9136672,31.2423405 32.7798637,31.1029926 32.8467654,31.0333186 L33.1143724,29.5701654 C33.1143724,29.5004914 33.1143724,29.5004914 33.0474706,29.4308175 L32.0439447,28.385708 C31.977043,28.316034 31.977043,28.1070121 32.1108464,28.1070121 L33.5157827,27.8979902 C33.5826845,27.8979902 33.5826845,27.8283163 33.6495862,27.8283163 L34.2517018,26.5045109 C34.3186035,26.365163 34.4524069,26.365163 34.5193087,26.5045109 L34.5193087,26.5045109 Z" id="Path"></path>
                <path d="M43.3193087,26.5045109 L43.9214242,27.8283163 C43.9214242,27.8979902 43.988326,27.8979902 44.0552277,27.8979902 L45.460164,28.1070121 C45.5939675,28.1070121 45.6608692,28.316034 45.5270657,28.385708 L44.5235398,29.4308175 C44.4566381,29.5004914 44.4566381,29.5004914 44.4566381,29.5701654 L44.724245,31.0333186 C44.724245,31.1726666 44.5904415,31.2423405 44.5235398,31.1726666 L43.2524069,30.4759269 L43.1186035,30.4759269 L41.8474706,31.1726666 C41.7136672,31.2423405 41.5798637,31.1029926 41.6467654,31.0333186 L41.9143724,29.5701654 C41.9143724,29.5004914 41.9143724,29.5004914 41.8474706,29.4308175 L40.8439447,28.385708 C40.777043,28.316034 40.777043,28.1070121 40.9108464,28.1070121 L42.3157827,27.8979902 C42.3826845,27.8979902 42.3826845,27.8283163 42.4495862,27.8283163 L43.0517018,26.5045109 C43.1186035,26.365163 43.2524069,26.365163 43.3193087,26.5045109 L43.3193087,26.5045109 Z" id="Path"></path>
            </g>
        </g>
    </g>
</svg>