<svg width="128" height="128" viewBox="0 0 128 128" fill="none" xmlns="http://www.w3.org/2000/svg">
<path d="M55.6 66.5L52.9 74.2L62.9 70.7C65.4 71.5 68.2 72 71.2 72C81.8 72 90.4 66.1 90.4 58.9C90.4 51.7 81.8 45.8 71.2 45.8C60.6 45.8 52 51.7 52 58.9C51.9 61.7 53.2 64.3 55.6 66.5Z" stroke="#F0F0F0" stroke-width="4" stroke-linecap="round" stroke-linejoin="round"/>
<path d="M89 54C89.8 53.9 90.5 53.9 91.3 53.9C101.9 53.9 110.5 59.8 110.5 67C110.5 69.9 109.2 72.5 106.8 74.7L109.5 82.4L99.5 78.9C97 79.7 94.2 80.2 91.2 80.2C83 80.2 76.1 76.7 73.3 71.8" stroke="#F0F0F0" stroke-width="4" stroke-linejoin="round"/>
<path d="M82 79V113.8C82 120.3 76.7 125.6 70.2 125.6H29.2C22.7 125.6 17.4 120.3 17.4 113.8V14.2C17.4 7.7 22.7 2.4 29.2 2.4H70.3C76.8 2.4 82 7.7 82 14.2V47.3" stroke="#F0F0F0" stroke-width="4" stroke-linecap="round" stroke-linejoin="round"/>
<path d="M82 103.4H17.5" stroke="#F0F0F0" stroke-width="4" stroke-linecap="round" stroke-linejoin="round"/>
<path d="M82 24.7H17.5" stroke="#F0F0F0" stroke-width="4" stroke-linecap="round" stroke-linejoin="round"/>
<path d="M57.9 13.6H41.6" stroke="#F0F0F0" stroke-width="4" stroke-linecap="round" stroke-linejoin="round"/>
<path d="M49.7 118.1C51.4673 118.1 52.9 116.667 52.9 114.9C52.9 113.133 51.4673 111.7 49.7 111.7C47.9327 111.7 46.5 113.133 46.5 114.9C46.5 116.667 47.9327 118.1 49.7 118.1Z" stroke="#F0F0F0" stroke-width="4" stroke-miterlimit="10"/>
</svg>
