<svg xmlns="http://www.w3.org/2000/svg" xmlns:xlink="http://www.w3.org/1999/xlink" version="1.1" x="0px" y="0px" viewBox="0 0 32 40" enable-background="new 0 0 32 32" xml:space="preserve"><path d="M12.707,14.882c-0.546-1.499-0.475-3.12,0.199-4.565c0.436-0.934,1.107-1.708,1.914-2.292  c-1.05-0.249-2.182-0.179-3.234,0.312c-2.487,1.16-3.563,4.118-2.404,6.605c0.133,0.28,0.289,0.542,0.463,0.786l-0.288,0.788  c-0.068,0.189,0.03,0.399,0.219,0.469l0.673,0.244L7.34,25.218c-0.028,0.077-0.023,0.196,0.011,0.271l0.879,1.886  c0.051,0.108,0.182,0.157,0.291,0.104l1.887-0.879c0.074-0.033,0.154-0.123,0.183-0.199l0.27-0.741  c0.028-0.075,0.022-0.195-0.012-0.269l-0.584-1.255l1.188-0.553c0.108-0.052,0.156-0.183,0.105-0.291l-0.554-1.188l1.219-0.567  c0.11-0.052,0.158-0.183,0.106-0.29l-0.569-1.221l1.253-0.584c0.073-0.034,0.154-0.123,0.182-0.198l0.304-0.832l0.673,0.243  c0.188,0.07,0.399-0.026,0.468-0.217l0.26-0.715C13.9,17.025,13.132,16.051,12.707,14.882z"/><path d="M8.836,9.798C9.101,9.72,9.253,9.442,9.175,9.177c-0.13-0.442-0.195-0.9-0.195-1.362C8.98,5.16,11.141,3,13.796,3  c2.656,0,4.815,2.16,4.815,4.815c0,1.217-0.455,2.378-1.281,3.271c-0.188,0.203-0.176,0.519,0.027,0.707  c0.096,0.089,0.218,0.133,0.34,0.133c0.135,0,0.269-0.053,0.365-0.16c0.998-1.078,1.549-2.481,1.549-3.951  C19.611,4.609,17.003,2,13.796,2S7.98,4.609,7.98,7.815c0,0.558,0.079,1.11,0.235,1.643C8.293,9.724,8.573,9.875,8.836,9.798z"/><path d="M24.661,25.218l-0.271-0.741c-0.027-0.076-0.108-0.166-0.182-0.199l-1.253-0.584l0.554-1.188  c0.051-0.108,0.004-0.237-0.105-0.29l-1.188-0.553l0.568-1.219c0.05-0.111,0.003-0.24-0.105-0.293l-1.22-0.566l0.584-1.254  c0.034-0.073,0.038-0.195,0.011-0.27l-0.302-0.834l0.672-0.244c0.188-0.067,0.288-0.277,0.22-0.467l-0.289-0.789  c0.174-0.246,0.332-0.505,0.463-0.786c1.16-2.487,0.084-5.445-2.403-6.604c-0.112-0.052-0.228-0.076-0.341-0.119  c-0.055,0.846-0.287,1.658-0.653,2.407c0.149,0.427,0.14,0.909-0.065,1.352c-0.422,0.901-1.492,1.291-2.394,0.871  c-0.9-0.421-1.29-1.492-0.869-2.393c0.316-0.68,1.003-1.067,1.707-1.037c0.188-0.479,0.294-0.993,0.304-1.52  c-1.792,0.079-3.481,1.105-4.292,2.843c-1.16,2.487-0.083,5.445,2.404,6.604c0.281,0.13,0.568,0.229,0.859,0.306l0.286,0.787  c0.068,0.19,0.279,0.287,0.468,0.219l0.673-0.244L21.41,26.4c0.027,0.076,0.109,0.166,0.183,0.201l1.888,0.879  c0.108,0.05,0.24,0.004,0.291-0.105l0.879-1.887C24.684,25.413,24.688,25.293,24.661,25.218z"/><text x="0" y="47" fill="#000000" font-size="5px" font-weight="bold" font-family="'Helvetica Neue', Helvetica, Arial-Unicode, Arial, Sans-serif">Created by trang5000</text><text x="0" y="52" fill="#000000" font-size="5px" font-weight="bold" font-family="'Helvetica Neue', Helvetica, Arial-Unicode, Arial, Sans-serif">from the Noun Project</text></svg>